<?xml version="1.0" encoding="utf-8"?>
<!-- Generator: Adobe Illustrator 16.0.0, SVG Export Plug-In . SVG Version: 6.00 Build 0)  -->
<!DOCTYPE svg PUBLIC "-//W3C//DTD SVG 1.1//EN" "http://www.w3.org/Graphics/SVG/1.1/DTD/svg11.dtd">
<svg version="1.1" id="Layer_1" xmlns="http://www.w3.org/2000/svg" xmlns:xlink="http://www.w3.org/1999/xlink" x="0px" y="0px"
	 width="1000px" height="841.891px" viewBox="95.275 0 1000 841.891" enable-background="new 95.275 0 1000 841.891"
	 xml:space="preserve">
<g>
	<g>
		<path fill="#FFFFFF" d="M212.748,814.141c-12.275-10.212-18.552-21.084-19.13-33.221c-0.908-18.717,11.863-35.617,31.351-55.297
			l440.386-440.387c5.368-5.367,14.093-5.367,19.461,0c5.367,5.367,5.367,14.092,0,19.459L244.483,745
			c-10.238,10.349-23.835,25.185-23.367,34.543c0.056,1.486,0.303,5.973,10.156,14.258c6.991,6.99,12.963,10.569,17.726,10.651
			c0.082,0,0.138,0,0.192,0c4.652,0,10.405-3.358,17.065-10.019l385.338-385.338c5.368-5.368,14.093-5.368,19.46,0
			c5.366,5.368,5.366,14.092,0,19.459L285.714,813.894c-12.138,12.138-24.469,18.193-36.689,18.193S224.666,826.086,212.748,814.141
			z"/>
	</g>
	<g>
		<path fill="#FFFFFF" d="M640.447,444.326c-4.928-3.001-7.487-8.78-6.332-14.45l25.818-129.116l-103.16-77.37
			c-3.799-2.863-5.891-7.487-5.45-12.248c0.413-4.735,3.276-8.918,7.542-11.065l100.684-50.342l-25.46-127.299
			c-1.155-5.67,1.376-11.45,6.331-14.45c4.898-2.973,11.202-2.56,15.743,1.019L785.196,112.22L914.23,9.004
			c4.514-3.606,10.816-3.991,15.743-1.019c4.927,3,7.486,8.78,6.33,14.45l-25.432,127.327l100.683,50.342
			c4.238,2.119,7.102,6.331,7.542,11.064c0.44,4.762-1.651,9.386-5.45,12.249l-103.133,77.398l25.818,129.116
			c1.155,5.67-1.377,11.45-6.331,14.45c-4.927,3-11.229,2.615-15.744-1.018L785.224,340.147L656.19,443.363
			c-2.505,1.981-5.56,2.999-8.614,2.999C645.097,446.362,642.62,445.702,640.447,444.326z M793.81,311.742l108.116,86.509
			l-20.12-100.574c-1.047-5.202,0.99-10.542,5.229-13.707l92.289-69.223l-90.197-45.085c-5.531-2.78-8.56-8.917-7.32-15
			l20.119-100.573L793.81,140.597c-5.035,4.019-12.165,4.019-17.202,0L668.493,54.088l20.12,100.573
			c1.211,6.083-1.789,12.221-7.349,15l-90.196,45.085l92.288,69.223c4.238,3.166,6.275,8.505,5.229,13.707l-20.12,100.574
			l108.115-86.509c2.531-1.981,5.587-3,8.614-3C788.224,308.742,791.279,309.733,793.81,311.742z"/>
	</g>
	<g>
		<path fill="#FFFFFF" d="M770.883,19.738c0-7.597,6.165-13.762,13.762-13.762h0.276c7.596,0,13.623,6.166,13.623,13.762
			S792.242,33.5,784.645,33.5C777.048,33.5,770.883,27.335,770.883,19.738z"/>
	</g>
	<g>
		<path fill="#FFFFFF" d="M578.213,129.834c0-7.596,6.166-13.762,13.763-13.762h0.275c7.597,0,13.625,6.166,13.625,13.762
			c0,7.597-6.304,13.763-13.9,13.763S578.213,137.432,578.213,129.834z"/>
	</g>
	<g>
		<path fill="#FFFFFF" d="M991.076,129.834c0-7.596,6.165-13.762,13.762-13.762h0.276c7.596,0,13.623,6.166,13.623,13.762
			c0,7.597-6.303,13.763-13.899,13.763S991.076,137.432,991.076,129.834z"/>
	</g>
	<g>
		<path fill="#FFFFFF" d="M770.883,432.601c0-7.596,6.165-13.762,13.762-13.762h0.276c7.596,0,13.623,6.166,13.623,13.762
			c0,7.597-6.302,13.762-13.899,13.762C777.048,446.362,770.883,440.197,770.883,432.601z"/>
	</g>
	<g>
		<path fill="#FFFFFF" d="M991.076,322.504c0-7.597,6.165-13.762,13.762-13.762h0.276c7.596,0,13.623,6.166,13.623,13.762
			c0,7.596-6.303,13.762-13.899,13.762S991.076,330.101,991.076,322.504z"/>
	</g>
	<g>
		<path fill="#FFFFFF" d="M445.19,635.014l-55.048-55.049c-5.368-5.366-5.368-14.092,0-19.46c5.367-5.366,14.092-5.366,19.459,0
			l55.049,55.049c5.366,5.367,5.366,14.093,0,19.46c-2.698,2.67-6.221,4.019-9.744,4.019
			C451.383,639.032,447.859,637.684,445.19,635.014z"/>
	</g>
</g>
</svg>
